<svg id="Capa_1" enable-background="new 0 0 512 512" height="512" viewBox="0 0 512 512" width="512" xmlns="http://www.w3.org/2000/svg"><g><g><g><path d="m379.068 140.383-23.303 132.141-25.662-4.522 23.303-132.141c.793-4.481 5.058-7.479 9.55-6.686l9.426 1.659c4.481.792 7.479 5.067 6.686 9.549z" fill="#8b8088"/><path d="m201.1 367.733h244.702v26.059h-244.702z" fill="#f8f3f1" transform="matrix(.174 -.985 .985 .174 -107.694 633.18)"/><g><path d="m449.223 189.121c-3.534-14.958-14.557-26.331-29.711-29-16.73-2.957-32.513 5.512-40.043 20.635-13.578-14.526-21.829-31.41-25.538-40.177-1.659-3.915-.103-8.417 3.606-10.467 9.302-5.13 31.286-11.837 77.912-3.606 43.68 7.696 35.429 42.712 13.774 62.615z" fill="#5169cd"/><path d="m449.223 189.11c-2.04-8.602-6.542-16.019-12.898-21.273 9.158-14.165 11.198-30.916-1.813-41.506l.948.165c43.659 7.695 35.418 42.711 13.763 62.614z" fill="#3351c5"/><path d="m453.302 185.014c-12.553 13.823-31.568 22.646-47.115 15.543-12.39-5.668-22.484-14.572-30.456-24.001 7.782-16.369 25.775-26.22 44.493-22.92 16.821 2.967 29.456 15.729 33.078 31.378z" fill="#f8f3f1"/><path d="m453.302 185.014c-12.553 13.823-31.568 22.646-47.115 15.543-4.095-1.873-7.939-4.099-11.538-6.585-.01-.002-.01-.002-.018-.014-.037-.027-.064-.053-.093-.069 17.636.181 36.526-14.638 44.839-31.405 6.945 5.755 11.875 13.685 13.925 22.53z" fill="#e5e1e5"/></g></g><g><g><g><g><path d="m223.4 87.749v-77.04c0-5.915-4.794-10.709-10.708-10.709h-37.975c-35.4 0-64.098 28.697-64.098 64.098v23.651z" fill="#fcc16d"/></g><g><path d="m297.049 87.749c6.717-10.341 10.633-22.669 10.633-35.919v-41.122c0-5.914-4.794-10.708-10.708-10.708h-54.336c-43.207 0-78.234 35.026-78.234 78.234v9.515z" fill="#ffd496"/><path d="m277.699 10.709v41.119c0 13.251-3.917 25.579-10.634 35.92h29.986c6.716-10.341 10.631-22.669 10.631-35.92v-41.119c0-5.911-4.797-10.708-10.708-10.708h-29.983c5.91 0 10.708 4.797 10.708 10.708z" fill="#fcc16d"/></g></g><g><g><g><g><g><g><g><g><g><g><g><path d="m346.679 345.152-22.324 22.324c-6.985 6.985-10.909 16.462-10.909 26.331v118.193h-213.732v-118.193c0-9.869-3.925-19.347-10.91-26.331l-22.334-22.334c14.886-34.181 48.944-57.628 87.988-57.628h104.234c39.054-.001 73.101 23.456 87.987 57.638z" fill="#70d9e6"/><path d="m346.679 345.152-22.324 22.324c-.927.927-1.813 1.906-2.627 2.926-6.49-47.347-46.986-82.888-95.065-82.888h32.028c39.055-.001 73.102 23.456 87.988 57.638z" fill="#22c7db"/><g><path d="m110.016 387.626v33.007h-56.135l5.182-47.543c1.535-14.144 6.099-27.3 13.001-38.838l27.042 27.042c6.985 6.985 10.91 16.463 10.91 26.332z" fill="#c9c0c7"/></g><path d="m346.679 345.152-22.324 22.324c-6.985 6.985-10.909 16.462-10.909 26.331v118.193h-33.996v-124.374c0-16.277 6.336-31.575 17.843-43.082l29.092-29.082c8.488 8.448 15.421 18.492 20.294 29.69z" fill="#22c7db"/><path d="m359.258 420.633h-56.114v-33.007c0-9.869 3.925-19.347 10.909-26.331l27.022-27.022c6.913 11.538 11.476 24.683 13.011 38.817z" fill="#c9c0c7"/><path d="m55.008 410.33h55.005v101.67h-54.591c-6.131 0-10.905-5.322-10.241-11.417z" fill="#fdb0a0"/><path d="m110.014 439.945v-29.615h-55.006l-3.225 29.615z" fill="#f69583"/><path d="m359.258 420.633h-32.008l-5.182-47.543c-.618-5.687-1.72-11.208-3.286-16.524l22.293-22.293c6.913 11.538 11.476 24.683 13.011 38.817z" fill="#b9afb9"/><path d="m357.731 512h-54.591v-101.67h55.005l9.827 90.253c.664 6.095-4.11 11.417-10.241 11.417z" fill="#fdb0a0"/><g fill="#f69583"><path d="m361.369 439.945-3.224-29.615h-55.006v29.615z"/><path d="m326.123 410.326 11.075 101.674h20.526c6.131 0 10.905-5.322 10.241-11.417l-9.825-90.257z"/></g></g><g><path d="m234.196 258.551v35.913c0 15.253-12.367 27.62-27.62 27.62s-27.62-12.367-27.62-27.62v-35.913z" fill="#fdb0a0"/></g><path d="m234.196 258.551v28.964c-8.556 3.353-17.875 5.183-27.62 5.183s-19.064-1.829-27.62-5.183v-28.964z" fill="#f69583"/><g><g fill="#f7a192"><circle cx="291.954" cy="159.686" r="27.28"/><circle cx="121.192" cy="159.686" r="27.28"/></g></g><path d="m206.573 272.097c-41.969 0-75.992-34.023-75.992-75.992v-54.122c0-14.885 12.066-26.951 26.951-26.951h98.083c14.885 0 26.951 12.066 26.951 26.951v54.122c-.001 41.969-34.024 75.992-75.993 75.992z" fill="#ffcec0"/><path d="m282.565 177.011v-35.029c0-14.885-12.066-26.951-26.951-26.951h-98.083c-14.885 0-26.951 12.066-26.951 26.951v35.029z" fill="#fdb0a0"/></g></g><g><g><g><g><path d="m168.491 172.467c-4.268 0-7.726-3.459-7.726-7.726v-1.866c0-4.267 3.459-7.726 7.726-7.726s7.726 3.459 7.726 7.726v1.866c.001 4.267-3.458 7.726-7.726 7.726z" fill="#1fb2cc"/></g><g><path d="m244.655 172.467c-4.268 0-7.726-3.459-7.726-7.726v-1.866c0-4.267 3.459-7.726 7.726-7.726 4.268 0 7.726 3.459 7.726 7.726v1.866c.001 4.267-3.458 7.726-7.726 7.726z" fill="#1fb2cc"/></g></g><g><path d="m209.422 202.397h-12.015c-2.214 0-4.323-.95-5.789-2.61-1.467-1.659-2.151-3.868-1.879-6.066l4.606-37.213c.524-4.235 4.393-7.237 8.617-6.719 4.235.524 7.243 4.382 6.719 8.617l-3.532 28.537h3.274c4.268 0 7.726 3.459 7.726 7.726-.001 4.269-3.459 7.728-7.727 7.728z" fill="#f7a192"/></g></g></g></g></g></g></g></g></g></g><g><g><path d="m103.622 110.788s0 42.567 28.479 42.567h147.913c28.479 0 28.479-42.567 28.479-42.567z" fill="#e5e1e5"/><path d="m308.495 110.787s0 42.565-28.484 42.565h-33.806c28.473 0 28.473-42.565 28.473-42.565z" fill="#c9c0c7"/></g><g><path d="m308.009 116.345h-203.116c-5.914 0-10.708-4.794-10.708-10.708v-10.5c0-5.914 4.794-10.708 10.708-10.708h203.116c5.914 0 10.708 4.794 10.708 10.708v10.5c0 5.914-4.794 10.708-10.708 10.708z" fill="#f8f3f1"/><path d="m318.722 95.132v10.505c0 5.911-4.797 10.708-10.708 10.708h-33.816c5.911 0 10.708-4.797 10.708-10.708v-10.505c0-5.911-4.797-10.708-10.708-10.708h33.816c5.91 0 10.708 4.797 10.708 10.708z" fill="#e5e1e5"/></g></g></g><g><path d="m206.575 241.283c-10.32 0-20.262-4.351-27.277-11.937-2.896-3.133-2.705-8.021.428-10.918s8.021-2.706 10.919.427c4.159 4.498 9.817 6.975 15.931 6.975 6.115 0 11.772-2.477 15.931-6.975 2.896-3.133 7.784-3.325 10.919-.428 3.133 2.897 3.325 7.785.428 10.918-7.016 7.587-16.958 11.938-27.279 11.938z" fill="#f7a192"/></g></g></g></g><g><g><path d="m168.043 285.424-22.032 21.605c-1.841 1.805-2.063 4.694-.521 6.76l28.743 38.49c2.03 2.718 6.087 2.766 8.18.096l23.372-29.805c1.604-2.045 1.433-4.964-.399-6.808l-30.082-30.289c-1.995-2.01-5.239-2.032-7.261-.049z" fill="#f8f3f1"/><path d="m245.014 285.424 22.032 21.605c1.841 1.805 2.063 4.694.521 6.76l-28.742 38.49c-2.03 2.718-6.087 2.766-8.18.096l-23.372-29.805c-1.604-2.045-1.433-4.964.399-6.808l30.082-30.289c1.995-2.01 5.238-2.032 7.26-.049z" fill="#e5e1e5"/></g></g></g></svg>