<svg width="785" height="588" viewBox="0 0 785 588" fill="none" xmlns="http://www.w3.org/2000/svg">
<g clip-path="url(#clip0)">
<path d="M417 208.067V439.733H9.26666V208.067C9.26666 187.595 25.862 171 46.3333 171H379.933C400.405 171 417 187.595 417 208.067Z" fill="#02A9F4"/>
<path d="M417 208.067V439.733H9.26666V396.365C263.915 418.235 330.727 241.149 347.129 171H379.933C400.405 171 417 187.595 417 208.067Z" fill="#0377BC"/>
<path d="M417 439.733V449C417 469.471 400.405 486.067 379.933 486.067H46.3333C25.862 486.067 9.26666 469.471 9.26666 449V439.733H417Z" fill="#607D8B"/>
<path d="M389.2 439.733V449C389.2 469.471 372.605 486.067 352.133 486.067H379.933C400.405 486.067 417 469.471 417 449V439.733H389.2Z" fill="#37474F"/>
<path d="M157.533 486.067H268.733V541.667H157.533V486.067Z" fill="#607D8B"/>
<path d="M240.933 486.067H268.733V541.667H240.933V486.067Z" fill="#37474F"/>
<path d="M324.333 560.2C324.333 570.436 316.036 578.733 305.8 578.733H120.467C110.231 578.733 101.933 570.436 101.933 560.2C101.933 549.964 110.231 541.667 120.467 541.667H305.8C316.036 541.667 324.333 549.964 324.333 560.2Z" fill="#607D8B"/>
<path d="M305.8 541.667H278C288.236 541.667 296.533 549.964 296.533 560.2C296.533 570.436 288.236 578.733 278 578.733H305.8C316.036 578.733 324.333 570.436 324.333 560.2C324.333 549.964 316.036 541.667 305.8 541.667Z" fill="#37474F"/>
<path d="M46.3333 254.4C43.8702 254.414 41.5028 253.447 39.754 251.713C37.9997 249.973 37.0129 247.604 37.0129 245.133C37.0129 242.662 37.9997 240.294 39.754 238.554L76.8207 201.487C79.1712 199.137 82.5973 198.219 85.8082 199.079C89.0191 199.939 91.5272 202.448 92.3875 205.658C93.2479 208.869 92.3299 212.295 89.9793 214.646L52.9127 251.713C51.1639 253.447 48.7964 254.414 46.3333 254.4V254.4Z" fill="#F5F5F5"/>
<path d="M46.3333 310C43.8702 310.014 41.5028 309.047 39.754 307.313C37.9997 305.573 37.0129 303.204 37.0129 300.733C37.0129 298.262 37.9997 295.894 39.754 294.154L132.421 201.487C134.771 199.137 138.197 198.219 141.408 199.079C144.619 199.939 147.127 202.448 147.988 205.658C148.848 208.869 147.93 212.295 145.579 214.646L52.9127 307.313C51.1639 309.047 48.7964 310.014 46.3333 310V310Z" fill="#F5F5F5"/>
<path d="M546.733 59.8V560.2C546.733 570.436 538.436 578.733 528.2 578.733H305.8C316.036 578.733 324.333 570.436 324.333 560.2C324.333 549.964 316.036 541.667 305.8 541.667H268.733V486.067H379.933C400.405 486.067 417 469.471 417 449V208.067C417 187.595 400.405 171 379.933 171H268.733V59.8C268.733 49.5643 277.031 41.2667 287.267 41.2667H528.2C538.436 41.2667 546.733 49.5643 546.733 59.8Z" fill="#3F51B5"/>
<path d="M528.2 41.2667H500.4C510.636 41.2667 518.933 49.5643 518.933 59.8V560.2C518.933 570.436 510.636 578.733 500.4 578.733H528.2C538.436 578.733 546.733 570.436 546.733 560.2V59.8C546.733 49.5643 538.436 41.2667 528.2 41.2667Z" fill="#283593"/>
<path d="M500.4 87.6H315.067C309.949 87.6 305.8 91.7488 305.8 96.8667V115.4C305.8 120.518 309.949 124.667 315.067 124.667H500.4C505.518 124.667 509.667 120.518 509.667 115.4V96.8667C509.667 91.7488 505.518 87.6 500.4 87.6Z" fill="#283593"/>
<path d="M481.867 208.067C492.102 208.067 500.4 199.769 500.4 189.533C500.4 179.298 492.102 171 481.867 171C471.631 171 463.333 179.298 463.333 189.533C463.333 199.769 471.631 208.067 481.867 208.067Z" fill="#FFEB3A"/>
<path d="M481.867 282.2C492.102 282.2 500.4 273.902 500.4 263.667C500.4 253.431 492.102 245.133 481.867 245.133C471.631 245.133 463.333 253.431 463.333 263.667C463.333 273.902 471.631 282.2 481.867 282.2Z" fill="#FFEB3A"/>
<path d="M528.2 32H287.267C271.913 32 259.467 44.4465 259.467 59.8V161.733H46.3333C20.7441 161.733 0 182.477 0 208.067V449C0 474.589 20.7441 495.333 46.3333 495.333H148.267V532.4H120.467C105.113 532.4 92.6667 544.846 92.6667 560.2C92.6667 575.554 105.113 588 120.467 588H528.2C543.554 588 556 575.554 556 560.2V59.8C556 44.4465 543.554 32 528.2 32ZM46.3333 180.267H379.933C395.287 180.267 407.733 192.713 407.733 208.067V430.467H18.5333V208.067C18.5333 192.713 30.9798 180.267 46.3333 180.267ZM18.5333 449H407.733C407.733 464.354 395.287 476.8 379.933 476.8H46.3333C30.9798 476.8 18.5333 464.354 18.5333 449ZM166.8 495.333H259.467V532.4H166.8V495.333ZM287.267 569.467H120.467C115.349 569.467 111.2 565.318 111.2 560.2C111.2 555.082 115.349 550.933 120.467 550.933H305.8C310.918 550.933 315.067 555.082 315.067 560.2C315.067 565.318 310.918 569.467 305.8 569.467H287.267ZM537.467 560.2C537.467 565.318 533.318 569.467 528.2 569.467H331.932C334.936 560.971 333.635 551.546 328.443 544.181C323.251 536.817 314.811 532.425 305.8 532.4H278V495.333H379.933C405.523 495.333 426.267 474.589 426.267 449V208.067C426.267 182.477 405.523 161.733 379.933 161.733H278V59.8C278 54.6822 282.149 50.5333 287.267 50.5333H528.2C533.318 50.5333 537.467 54.6822 537.467 59.8V560.2Z" fill="black"/>
<path d="M500.4 78.3333H315.067C304.831 78.3333 296.533 86.631 296.533 96.8667V115.4C296.533 125.636 304.831 133.933 315.067 133.933H500.4C510.636 133.933 518.933 125.636 518.933 115.4V96.8667C518.933 86.631 510.636 78.3333 500.4 78.3333ZM315.067 115.4V96.8667H500.4V115.4H315.067Z" fill="black"/>
<path d="M481.867 217.333C497.22 217.333 509.667 204.887 509.667 189.533C509.667 174.18 497.22 161.733 481.867 161.733C466.513 161.733 454.067 174.18 454.067 189.533C454.067 204.887 466.513 217.333 481.867 217.333ZM481.867 180.267C486.985 180.267 491.133 184.415 491.133 189.533C491.133 194.651 486.985 198.8 481.867 198.8C476.749 198.8 472.6 194.651 472.6 189.533C472.6 184.415 476.749 180.267 481.867 180.267Z" fill="black"/>
<path d="M509.667 263.667C509.667 248.313 497.22 235.867 481.867 235.867C466.513 235.867 454.067 248.313 454.067 263.667C454.067 279.02 466.513 291.467 481.867 291.467C497.22 291.467 509.667 279.02 509.667 263.667ZM481.867 272.933C476.749 272.933 472.6 268.785 472.6 263.667C472.6 258.549 476.749 254.4 481.867 254.4C486.985 254.4 491.133 258.549 491.133 263.667C491.133 268.785 486.985 272.933 481.867 272.933Z" fill="black"/>
<path d="M361.4 513.867C356.282 513.867 352.133 518.015 352.133 523.133V541.667C352.133 546.785 356.282 550.933 361.4 550.933C366.518 550.933 370.667 546.785 370.667 541.667V523.133C370.667 518.015 366.518 513.867 361.4 513.867Z" fill="black"/>
<path d="M398.467 513.867C393.349 513.867 389.2 518.015 389.2 523.133V541.667C389.2 546.785 393.349 550.933 398.467 550.933C403.585 550.933 407.733 546.785 407.733 541.667V523.133C407.733 518.015 403.585 513.867 398.467 513.867Z" fill="black"/>
<path d="M435.533 513.867C430.415 513.867 426.267 518.015 426.267 523.133V541.667C426.267 546.785 430.415 550.933 435.533 550.933C440.651 550.933 444.8 546.785 444.8 541.667V523.133C444.8 518.015 440.651 513.867 435.533 513.867Z" fill="black"/>
<path d="M472.6 513.867C467.482 513.867 463.333 518.015 463.333 523.133V541.667C463.333 546.785 467.482 550.933 472.6 550.933C477.718 550.933 481.867 546.785 481.867 541.667V523.133C481.867 518.015 477.718 513.867 472.6 513.867Z" fill="black"/>
<path d="M509.667 513.867C504.549 513.867 500.4 518.015 500.4 523.133V541.667C500.4 546.785 504.549 550.933 509.667 550.933C514.785 550.933 518.933 546.785 518.933 541.667V523.133C518.933 518.015 514.785 513.867 509.667 513.867Z" fill="black"/>
<g clip-path="url(#clip1)">
<path d="M616.065 310.323H511.935V423.129H616.065V310.323Z" fill="#F9E0A6"/>
<path d="M737.548 501.226H390.452V579.323H737.548V501.226Z" fill="#F9E0A6"/>
<path d="M713.252 131.568C695.229 118.048 673.301 110.742 650.774 110.742L652.909 107.54C662.775 92.745 677.292 81.6552 694.161 76.0323L678.915 70.9473C655.339 63.0942 629.61 64.9165 607.387 76.0323L594.909 69.7932C580.288 62.4868 564.165 58.6774 547.817 58.6774C489.661 58.6774 442.516 105.822 442.516 163.978V249.581H685.484V180.613C685.484 174.608 686.881 168.681 689.571 163.318C692.582 157.296 697.112 152.168 702.709 148.437L720.194 136.774L713.252 131.568Z" fill="#D3A06C"/>
<path d="M511.935 356.981C527.268 365.884 545.022 371.065 564 371.065C582.978 371.065 600.732 365.884 616.065 356.981V310.323H511.935V356.981Z" fill="#EABD8C"/>
<path d="M564 353.71C516.075 353.71 477.226 314.861 477.226 266.935V171.484H650.774V266.935C650.774 314.861 611.925 353.71 564 353.71Z" fill="#F9E0A6"/>
<path d="M477.226 206.194H478.692C511.797 206.194 544.285 197.195 572.677 180.161C572.677 191.572 570.022 202.827 564.92 213.04L564 214.871C592.714 209.127 620.221 198.497 645.325 183.433L650.774 180.161V145.452H477.226V206.194Z" fill="#D3A06C"/>
<path d="M624.742 136.774C650.774 145.452 650.774 180.161 650.774 180.161V249.581H685.484V180.613C685.484 174.608 686.881 168.681 689.571 163.318C692.582 157.296 697.112 152.168 702.709 148.437L720.194 136.774L713.252 131.568C695.229 118.048 673.301 110.742 650.774 110.742L652.909 107.54C662.775 92.745 677.292 81.6552 694.161 76.0323L678.915 70.9473C655.339 63.0942 629.61 64.9165 607.387 76.0323V84.7097C624.742 102.065 624.742 136.774 624.742 136.774Z" fill="#B27946"/>
<path d="M477.226 214.871C458.057 214.871 442.516 230.412 442.516 249.581C442.516 268.749 458.057 284.29 477.226 284.29H650.774C669.943 284.29 685.484 268.749 685.484 249.581C685.484 230.412 669.943 214.871 650.774 214.871H477.226Z" fill="#F9E0A6"/>
<path d="M737.548 501.226H390.452V535.935H737.548V501.226Z" fill="#EABD8C"/>
<path d="M699.784 394.988L616.064 371.065C616.064 371.065 607.387 405.774 564 405.774C520.613 405.774 511.935 371.065 511.935 371.065L428.216 394.988C405.863 401.375 390.452 421.801 390.452 445.048V509.903H451.194V579.323H676.806V509.903H737.548V445.048C737.548 421.801 722.137 401.375 699.784 394.988Z" fill="#FB5968"/>
<path d="M699.784 394.988L616.065 371.065C616.065 371.065 613.991 379.187 606.988 387.569L672.589 417.844C691.029 426.357 702.839 444.814 702.839 465.119V509.903H737.548V445.048C737.548 421.801 722.137 401.375 699.784 394.988Z" fill="#CD2C5A"/>
<path d="M702.171 386.64L624.742 364.522V340.503C639.589 328.224 650.583 311.511 655.885 292.447C677.379 289.887 694.161 271.751 694.161 249.581V180.613C694.161 175.979 695.255 171.336 697.329 167.189C699.663 162.529 703.177 158.537 707.516 155.648L735.205 137.191L718.458 124.626C703.489 113.397 685.753 106.065 667.296 103.297C675.392 94.628 685.597 88.0245 696.895 84.2585L721.599 76.0323L681.648 62.7124C657.109 54.547 630.946 55.8659 607.483 66.3743L598.796 62.0356C583.056 54.1565 565.432 50 547.817 50C484.975 50 433.839 101.136 433.839 163.978V249.581C433.839 271.751 450.621 289.887 472.115 292.447C477.417 311.511 488.411 328.224 503.258 340.503V364.522L425.829 386.64C399.893 394.042 381.774 418.061 381.774 445.04V588H746.226V445.04C746.226 418.061 728.107 394.042 702.171 386.64ZM659.087 274.129C659.269 271.743 659.452 269.365 659.452 266.935V225.145C669.526 228.737 676.806 238.283 676.806 249.581C676.806 261.009 669.353 270.641 659.087 274.129ZM547.817 67.3548C562.742 67.3548 577.684 70.8866 591.03 77.5595L607.387 85.7336L611.266 83.7899C629.974 74.4356 651.017 72.301 671.053 77.6463C661.04 84.1804 652.362 92.7103 645.689 102.724L634.547 119.419H650.774C670.09 119.419 689.241 125.424 705.112 136.401L697.893 141.217C691.046 145.781 685.484 152.081 681.805 159.44C678.533 165.974 676.806 173.297 676.806 180.613V215.088C671.739 211.252 665.899 208.38 659.452 207.07V164.837L640.865 175.987C621.228 187.771 600.22 196.7 578.214 202.627C580.279 195.329 581.355 187.745 581.355 180.161V164.837L568.209 172.725C543.235 187.711 514.921 196.162 485.903 197.369V180.161H468.548V207.07C462.101 208.389 456.261 211.252 451.194 215.088V163.978C451.194 110.699 494.537 67.3548 547.817 67.3548ZM451.194 249.581C451.194 238.283 458.474 228.737 468.548 225.145V266.935C468.548 269.365 468.731 271.743 468.913 274.129C458.647 270.641 451.194 261.009 451.194 249.581ZM485.903 266.935V214.732C512.361 213.734 538.315 207.244 562.091 195.737C560.946 200.371 559.288 204.883 557.154 209.153L548.303 226.854L565.701 223.375C592.557 218.004 618.216 208.571 642.097 195.312V266.935C642.097 309.993 607.057 345.032 564 345.032C520.943 345.032 485.903 309.993 485.903 266.935ZM564 362.387C579.628 362.387 594.354 358.534 607.387 351.853V369.798C605.903 374.301 596.792 397.097 564 397.097C531.303 397.097 522.175 374.518 520.613 369.78V351.853C533.646 358.534 548.372 362.387 564 362.387ZM430.593 403.336L506.694 381.582C513.801 396.038 531.225 414.452 564 414.452C596.775 414.452 614.199 396.038 621.297 381.582L697.407 403.336C715.933 408.62 728.871 425.776 728.871 445.04V501.226H685.484V449.161H668.129V570.645H459.871V449.161H442.516V501.226H399.129V445.04C399.129 425.776 412.067 408.62 430.593 403.336ZM399.129 518.581H442.516V570.645H399.129V518.581ZM685.484 570.645V518.581H728.871V570.645H685.484Z" fill="black"/>
<path d="M520.613 249.581C525.405 249.581 529.29 245.696 529.29 240.903C529.29 236.111 525.405 232.226 520.613 232.226C515.82 232.226 511.935 236.111 511.935 240.903C511.935 245.696 515.82 249.581 520.613 249.581Z" fill="black"/>
<path d="M607.387 249.581C612.18 249.581 616.065 245.696 616.065 240.903C616.065 236.111 612.18 232.226 607.387 232.226C602.595 232.226 598.71 236.111 598.71 240.903C598.71 245.696 602.595 249.581 607.387 249.581Z" fill="black"/>
<path d="M564 319C583.142 319 598.71 303.433 598.71 284.29H581.355C581.355 293.862 573.571 301.645 564 301.645C554.429 301.645 546.645 293.862 546.645 284.29H529.29C529.29 303.433 544.858 319 564 319Z" fill="black"/>
<path d="M485.903 509.903H503.258V449.161H477.226V466.516H485.903V509.903Z" fill="black"/>
<path d="M529.29 509.903H546.645V449.161H520.613V466.516H529.29V509.903Z" fill="black"/>
<path d="M360.081 440.484C343.971 440.484 328.521 446.883 317.13 458.275C305.738 469.666 299.339 485.116 299.339 501.226V544.613C299.352 549.211 301.185 553.618 304.437 556.869C307.689 560.121 312.095 561.954 316.694 561.968H342.726L381.948 530.989C385.008 528.563 388.802 527.247 392.708 527.258H431.583C435.488 527.247 439.282 528.563 442.343 530.989L481.565 561.968H507.597C512.195 561.954 516.602 560.121 519.853 556.869C523.105 553.618 524.938 549.211 524.952 544.613V501.226C524.952 485.116 518.552 469.666 507.161 458.275C495.769 446.883 480.319 440.484 464.21 440.484H360.081Z" fill="#ACABB1"/>
<path d="M360.081 431.806H464.21C482.613 431.832 500.255 439.154 513.269 452.167C526.282 465.18 533.604 482.822 533.629 501.226V544.613C533.608 551.511 530.859 558.12 525.982 562.998C521.104 567.875 514.495 570.625 507.597 570.645H481.565C479.61 570.62 477.718 569.949 476.185 568.736L436.963 537.845C435.429 536.631 433.538 535.96 431.583 535.935H392.708C390.769 535.969 388.888 536.606 387.328 537.758L348.106 568.736C346.573 569.949 344.681 570.62 342.726 570.645H316.694C309.796 570.625 303.186 567.875 298.309 562.998C293.431 558.12 290.682 551.511 290.661 544.613V501.226C290.687 482.822 298.008 465.18 311.022 452.167C324.035 439.154 341.677 431.832 360.081 431.806V431.806ZM308.016 544.613C308.016 546.914 308.93 549.121 310.558 550.749C312.185 552.376 314.392 553.29 316.694 553.29H339.689L376.568 524.221C381.161 520.581 386.847 518.594 392.708 518.581H431.583C437.443 518.594 443.129 520.581 447.723 524.221L484.602 553.29H507.597C509.898 553.29 512.105 552.376 513.733 550.749C515.36 549.121 516.274 546.914 516.274 544.613V501.226C516.274 487.417 510.789 474.175 501.025 464.411C491.261 454.647 478.018 449.161 464.21 449.161H360.081C346.272 449.161 333.029 454.647 323.265 464.411C313.501 474.175 308.016 487.417 308.016 501.226V544.613Z" fill="black"/>
<path d="M464.21 466.516H481.565V483.871H498.919V501.226H481.565V518.581H464.21V501.226H446.855V483.871H464.21V466.516Z" fill="black"/>
<path d="M360.081 466.516H342.726V483.871H360.081V466.516Z" fill="black"/>
<path d="M342.726 483.871H325.371V501.226H342.726V483.871Z" fill="black"/>
<path d="M360.081 501.226H342.726V518.581H360.081V501.226Z" fill="black"/>
<path d="M377.435 483.871H360.081V501.226H377.435V483.871Z" fill="black"/>
<path d="M438.177 466.516H420.823V483.871H438.177V466.516Z" fill="black"/>
<path d="M403.468 466.516H386.113V483.871H403.468V466.516Z" fill="black"/>
</g>
</g>
<defs>
<clipPath id="clip0">
<rect width="785" height="588" fill="white"/>
</clipPath>
<clipPath id="clip1">
<rect width="538" height="538" fill="white" transform="translate(295 50)"/>
</clipPath>
</defs>
</svg>
