<svg height="512" viewBox="0 0 64 64" width="512" xmlns="http://www.w3.org/2000/svg"><g id="Battle-Game-Esport-Video_Game-Multiplayer" data-name="Battle-Game-Esport-Video Game-Multiplayer"><path d="m31 40.87v20.13h-28v-20.13a6 6 0 0 1 3.52-5.47l7.48-3.4a3 3 0 0 0 6 0l7.48 3.4a6 6 0 0 1 3.52 5.47z" fill="#3d9ae2"/><path d="m61 40.87v20.13h-28v-20.13a6 6 0 0 1 3.52-5.47l7.48-3.4a3 3 0 0 0 6 0l7.48 3.4a6 6 0 0 1 3.52 5.47z" fill="#ff6243"/><path d="m20 29v3a3 3 0 0 1 -6 0v-3z" fill="#ffc477"/><path d="m28 19v4a1 1 0 0 1 -1 1h-3v-6h3a1 1 0 0 1 1 1z" fill="#ee8700"/><path d="m10 23v1h-3a1 1 0 0 1 -1-1v-4a1 1 0 0 1 1-1h3z" fill="#ee8700"/><path d="m21.54 17.63-.54-1.63-1.87 1.4a7.982 7.982 0 0 1 -4.8 1.6h-4.33v-2a7 7 0 0 1 14 0v2h-.56a2.009 2.009 0 0 1 -1.9-1.37z" fill="#57565c"/><path d="m20 29v2.32a6.958 6.958 0 0 1 -6 0v-2.32z" fill="#ffb655"/><path d="m23.44 19a2.009 2.009 0 0 1 -1.9-1.37l-.54-1.63-1.87 1.4a7.982 7.982 0 0 1 -4.8 1.6h-4.33v4a7 7 0 0 0 14 0v-4z" fill="#ffc477"/><path d="m50 29v3a3 3 0 0 1 -6 0v-3z" fill="#ffc477"/><path d="m58 19v4a1 1 0 0 1 -1 1h-3v-6h3a1 1 0 0 1 1 1z" fill="#ee8700"/><path d="m40 23v1h-3a1 1 0 0 1 -1-1v-4a1 1 0 0 1 1-1h3z" fill="#ee8700"/><path d="m51.54 17.63-.54-1.63-1.87 1.4a7.982 7.982 0 0 1 -4.8 1.6h-4.33v-2a7 7 0 0 1 14 0v2h-.56a2.009 2.009 0 0 1 -1.9-1.37z" fill="#57565c"/><path d="m50 29v2.32a6.958 6.958 0 0 1 -6 0v-2.32z" fill="#ffb655"/><path d="m53.44 19a2.009 2.009 0 0 1 -1.9-1.37l-.54-1.63-1.87 1.4a7.982 7.982 0 0 1 -4.8 1.6h-4.33v4a7 7 0 0 0 14 0v-4z" fill="#ffc477"/><path d="m38 42a7 7 0 0 1 7 7v5a2.006 2.006 0 0 1 -2 2h-3l-4.52-3.57a1.987 1.987 0 0 0 -1.24-.43h-4.48a1.987 1.987 0 0 0 -1.24.43l-4.52 3.57h-3a2.006 2.006 0 0 1 -2-2v-5a7 7 0 0 1 7-7z" fill="#acabb1"/><path d="m19 21h2v2h-2z"/><path d="m13 21h2v2h-2z"/><path d="m10 42h-2v18h-4v-19.13a5.018 5.018 0 0 1 2.93-4.56l6.35-2.88a3.977 3.977 0 0 0 7.44 0l6.35 2.88a5 5 0 0 1 2.68 3l1.9-.62a7.017 7.017 0 0 0 -3.75-4.2l-6.9-3.13v-1.44a8.06 8.06 0 0 0 3.74-4.92h2.26a2.006 2.006 0 0 0 2-2v-4a2.006 2.006 0 0 0 -2-2v-2a10 10 0 0 0 -20 0v2a2.006 2.006 0 0 0 -2 2v4a2.006 2.006 0 0 0 2 2h2.26a8.06 8.06 0 0 0 3.74 4.92v1.44l-6.9 3.13a7.032 7.032 0 0 0 -4.1 6.38v20.13a1 1 0 0 0 1 1h28v-2h-21zm9-10a2 2 0 0 1 -4 0v-1.26a7.822 7.822 0 0 0 4 0zm4-14.12a1 1 0 0 1 -.51-.56l-.54-1.64a.975.975 0 0 0 -.65-.63 1 1 0 0 0 -.9.15l-1.87 1.4a7.042 7.042 0 0 1 -4.2 1.4h-3.33v-1a6 6 0 0 1 12 0zm4 5.12h-2v-4h2zm-18 0h-2v-4h2zm0-6v-2a8 8 0 0 1 16 0v2a8 8 0 0 0 -16 0zm2 6v-3h3.33a9.032 9.032 0 0 0 5.4-1.8l.76-.57.11.32a2.975 2.975 0 0 0 2.4 2.01v3.04a6 6 0 0 1 -12 0z"/><path d="m49 21h2v2h-2z"/><path d="m43 21h2v2h-2z"/><path d="m57.9 34.49-6.9-3.13v-1.44a8.06 8.06 0 0 0 3.74-4.92h2.26a2.006 2.006 0 0 0 2-2v-4a2.006 2.006 0 0 0 -2-2v-2a10 10 0 0 0 -20 0v2a2.006 2.006 0 0 0 -2 2v4a2.006 2.006 0 0 0 2 2h2.26a8.06 8.06 0 0 0 3.74 4.92v1.44l-6.9 3.13a7.017 7.017 0 0 0 -3.75 4.2l1.9.62a5 5 0 0 1 2.68-3l6.35-2.88a3.977 3.977 0 0 0 7.44 0l6.35 2.88a5.018 5.018 0 0 1 2.93 4.56v19.13h-4v-18h-2v18h-21v2h28a1 1 0 0 0 1-1v-20.13a7.032 7.032 0 0 0 -4.1-6.38zm-4.9-16.61a1 1 0 0 1 -.51-.56l-.54-1.64a.975.975 0 0 0 -.65-.63 1 1 0 0 0 -.9.15l-1.87 1.4a7.042 7.042 0 0 1 -4.2 1.4h-3.33v-1a6 6 0 0 1 12 0zm4 5.12h-2v-4h2zm-18 0h-2v-4h2zm0-6v-2a8 8 0 0 1 16 0v2a8 8 0 0 0 -16 0zm10 15a2 2 0 0 1 -4 0v-1.26a7.822 7.822 0 0 0 4 0zm-2-3a6 6 0 0 1 -6-6v-3h3.33a9.032 9.032 0 0 0 5.4-1.8l.76-.57.11.32a2.975 2.975 0 0 0 2.4 2.01v3.04a6 6 0 0 1 -6 6z"/><path d="m38 41h-12a8.011 8.011 0 0 0 -8 8v5a3.009 3.009 0 0 0 3 3h3a1.02 1.02 0 0 0 .62-.22l4.52-3.56a1.02 1.02 0 0 1 .62-.22h4.48a1.076 1.076 0 0 1 .62.21l4.52 3.57a1.02 1.02 0 0 0 .62.22h3a3.009 3.009 0 0 0 3-3v-5a8.011 8.011 0 0 0 -8-8zm6 13a1 1 0 0 1 -1 1h-2.65l-4.25-3.35a3.006 3.006 0 0 0 -1.86-.65h-4.48a3.006 3.006 0 0 0 -1.86.65l-4.25 3.35h-2.65a1 1 0 0 1 -1-1v-5a6 6 0 0 1 6-6h12a6 6 0 0 1 6 6z"/><path d="m26 45h-2v2h-2v2h2v2h2v-2h2v-2h-2z"/><path d="m38 45h2v2h-2z"/><path d="m40 47h2v2h-2z"/><path d="m38 49h2v2h-2z"/><path d="m36 47h2v2h-2z"/><path d="m29 45h2v2h-2z"/><path d="m33 45h2v2h-2z"/></g></svg>