<svg id="Capa_1" enable-background="new 0 0 512 512" height="512" viewBox="0 0 512 512" width="512" xmlns="http://www.w3.org/2000/svg"><g><g><g><g><path d="m324.119 163.786v47.443c0 29.515 23.926 53.441 53.441 53.441 29.515 0 53.441-23.926 53.441-53.441v-25.69c0-7.944-9.061-12.504-15.42-7.745-20.489 15.335-58.003 32.091-91.462-14.008z" fill="#7a7179"/><path d="m431.004 185.536v25.688c0 14.756-5.987 28.121-15.654 37.788-9.667 9.676-23.032 15.654-37.788 15.654-4.529 0-8.933-.56-13.134-1.622 9.474-2.395 17.943-7.33 24.645-14.032 9.676-9.667 15.654-23.032 15.654-37.788v-25.688c0-.212-.01-.425-.019-.637 3.988-2.231 7.648-4.693 10.874-7.108 6.354-4.76 15.422-.193 15.422 7.745z" fill="#685e67"/></g><g><path d="m341.864 70.236h-88.637v-28.597c.001-22.997 18.643-41.639 41.64-41.639h5.359c22.997 0 41.639 18.642 41.639 41.639v28.597z" fill="#685e67"/><path d="m341.867 41.634v28.606h-34.004v-28.606c0-17.956-11.38-33.264-27.314-39.11 4.471-1.626 9.285-2.522 14.319-2.522h5.356c23 0 41.643 18.643 41.643 41.632z" fill="#554e55"/></g><path d="m397.504 180.515h-199.916v-56.037c0-46.51 37.704-84.214 84.214-84.214h31.489c46.51 0 84.214 37.704 84.214 84.214v56.037z" fill="#7a7179"/><path d="m397.505 124.482v56.034h-29.888v-56.034c0-46.509-37.703-84.213-84.213-84.213h29.888c46.51 0 84.213 37.704 84.213 84.213z" fill="#685e67"/><g><path d="m236.688 156.381c-11.361 0-20.604-9.243-20.604-20.604v-9.992c0-15.174 4.948-29.497 14.309-41.425 2.635-3.357 7.493-3.941 10.848-1.307 3.357 2.635 3.942 7.491 1.308 10.848-7.204 9.179-11.012 20.204-11.012 31.884v9.992c0 2.84 2.311 5.151 5.151 5.151 4.267 0 7.726 3.459 7.726 7.726 0 4.268-3.459 7.727-7.726 7.727z" fill="#554e55"/></g><g><path d="m358.414 156.381c-4.267 0-7.726-3.459-7.726-7.726s3.459-7.726 7.726-7.726c2.84 0 5.151-2.311 5.151-5.151v-9.992c0-11.68-3.808-22.705-11.012-31.883-2.635-3.357-2.05-8.214 1.307-10.848 3.355-2.636 8.214-2.051 10.848 1.307 9.362 11.927 14.31 26.251 14.31 41.425v9.992c-.001 11.359-9.244 20.602-20.604 20.602z" fill="#554e55"/></g><g><g><g><g><g><g><g><g><g><path d="m419.74 330.647-3.812 4.286c-6.47 7.263-10.034 16.637-10.034 26.362v150.705h-216.698v-150.705c0-9.725-3.575-19.1-10.034-26.362l-3.812-4.286c16.998-21.211 43.103-34.614 72.061-34.614h5.244v4.368c0 24.755 20.13 44.895 44.885 44.895s44.906-20.14 44.906-44.895v-4.368h5.233c28.959 0 55.063 13.402 72.061 34.614z" fill="#5169cd"/><path d="m419.74 330.647-3.812 4.286c-6.47 7.263-10.034 16.637-10.034 26.362v2.555c-8.551-31.173-32.863-55.413-63.449-64.222v-3.595h5.233c28.96 0 55.064 13.402 72.062 34.614z" fill="#3351c5"/><path d="m443.364 414.188h-52.918v97.812h52.084c6.131 0 10.905-5.322 10.241-11.417z" fill="#fdb0a0"/><path d="m446.006 438.452-2.642-24.264h-52.918v24.264z" fill="#f69583"/><g><path d="m443.36 414.184h-52.92v-63.193c0-9.72 3.571-19.102 10.035-26.362l6.355-7.138c17.781 14.824 29.947 36.283 32.626 60.873z" fill="#f8f3f1"/><g><path d="m443.36 414.184h-30.802l-3.904-35.83c-1.69-15.515-7.16-29.783-15.432-41.928 1.689-4.296 4.131-8.293 7.252-11.796l6.356-7.139c17.781 14.824 29.947 36.283 32.626 60.873z" fill="#e5e1e5"/></g></g><g><path d="m151.729 414.184h52.92v-63.193c0-9.72-3.571-19.102-10.035-26.362l-6.355-7.138c-17.781 14.824-29.947 36.283-32.626 60.873z" fill="#f8f3f1"/></g><path d="m151.73 414.188h52.918v97.812h-52.084c-6.131 0-10.905-5.322-10.241-11.417z" fill="#fdb0a0"/><path d="m204.649 438.452v-24.264h-52.919l-2.642 24.264z" fill="#f69583"/><path d="m412.558 414.184 10.654 97.816h19.311c6.131 0 10.905-5.322 10.241-11.417l-9.405-86.399z" fill="#f69583"/><path d="m350.168 296.065v4.335c0 29.023-23.604 52.626-52.626 52.626-29.012 0-52.616-23.604-52.616-52.626v-4.335c.823-.021 1.647-.031 2.48-.031h100.272c.834 0 1.667.01 2.49.031z" fill="#f8f3f1"/></g><g><path d="m324.119 268.168v32.233c0 14.674-11.898 26.572-26.572 26.572s-26.572-11.898-26.572-26.572v-32.233z" fill="#fdb0a0"/></g><path d="m324.119 268.168v27.865c-8.232 3.226-17.197 4.986-26.572 4.986s-18.34-1.76-26.572-4.986v-27.865z" fill="#f69583"/><g><g fill="#fdb0a0"><circle cx="379.685" cy="173.055" r="26.245"/><circle cx="215.402" cy="173.055" r="26.245"/></g></g><path d="m297.544 281.2c-40.377 0-73.109-32.732-73.109-73.109v-52.069c0-14.32 11.608-25.928 25.928-25.928h94.361c14.32 0 25.928 11.608 25.928 25.928v52.069c.001 40.377-32.731 73.109-73.108 73.109z" fill="#ffcec0"/></g></g><g><g><g><g><path d="m260.907 185.644c-4.267 0-7.726-3.459-7.726-7.726v-1.795c0-4.267 3.459-7.726 7.726-7.726s7.726 3.459 7.726 7.726v1.795c0 4.267-3.459 7.726-7.726 7.726z" fill="#685e67"/></g><g><path d="m334.181 185.644c-4.267 0-7.726-3.459-7.726-7.726v-1.795c0-4.267 3.459-7.726 7.726-7.726s7.726 3.459 7.726 7.726v1.795c0 4.267-3.459 7.726-7.726 7.726z" fill="#685e67"/></g></g><g><path d="m300.285 214.439h-11.56c-2.214 0-4.322-.95-5.789-2.61-1.466-1.659-2.15-3.868-1.879-6.066l4.431-35.8c.525-4.234 4.378-7.241 8.617-6.719 4.235.524 7.243 4.382 6.719 8.617l-3.358 27.125h2.818c4.267 0 7.726 3.459 7.726 7.726.002 4.267-3.458 7.727-7.725 7.727z" fill="#fdb0a0"/></g></g><g><path d="m278.805 233.475v5.224c0 10.161 7.901 18.815 18.056 19.176 10.661.379 19.422-8.151 19.422-18.727v-5.673c0-2.694-2.184-4.877-4.877-4.877h-27.724c-2.694 0-4.877 2.184-4.877 4.877z" fill="#fb6672"/></g></g><g fill="#fcb5ba"><ellipse cx="259.862" cy="202.837" rx="13.452" ry="11.021"/><ellipse cx="335.226" cy="202.837" rx="13.452" ry="11.021"/></g></g></g></g></g></g><path d="m312.527 463.092h-29.963c-5.755 0-10.421-4.666-10.421-10.421v-36.441c0-5.755 4.666-10.421 10.421-10.421h29.963c5.755 0 10.421 4.666 10.421 10.421v36.442c.001 5.755-4.665 10.42-10.421 10.42z" fill="#f8f3f1"/><path d="m322.95 416.234v36.438c0 5.759-4.667 10.425-10.425 10.425h-21.902c5.759 0 10.425-4.667 10.425-10.425v-36.438c0-5.759-4.667-10.425-10.425-10.425h21.902c5.759 0 10.425 4.667 10.425 10.425z" fill="#e5e1e5"/><g><path d="m353.441 389.36h-14.504c-4.267 0-7.726-3.459-7.726-7.726s3.459-7.726 7.726-7.726h14.504c4.267 0 7.726 3.459 7.726 7.726s-3.459 7.726-7.726 7.726z" fill="#3351c5"/></g></g><g><path d="m358.409 140.931h-121.726c-2.845 0-5.151-2.306-5.151-5.151v-9.997c0-28.604 23.188-51.793 51.793-51.793h28.443c28.604 0 51.793 23.188 51.793 51.793v9.997c-.001 2.845-2.307 5.151-5.152 5.151z" fill="#7a7179"/></g></g><g><g><g><circle cx="136.866" cy="434.301" fill="#f8f3f1" r="77.699"/><path d="m214.566 434.297c0 42.915-34.788 77.703-77.703 77.703-6.846 0-13.491-.891-19.816-2.552 37.03-4.383 65.744-35.899 65.744-74.11 0-40.043-31.536-72.729-71.118-74.551 7.896-2.712 16.373-4.183 25.191-4.183 42.914-.001 77.702 34.788 77.702 77.693z" fill="#e5e1e5"/></g></g><path d="m209.594 461.696c-2.06 5.491-4.739 10.683-7.932 15.504-39.538-1.442-61.224-25.981-68.476-36.015-3.492.391-8.983 1.339-15.391 3.595 1.751 2.967 9.478 15.154 24.714 26.599 14.083 10.57 30.04 17.163 47.502 19.604-5.13 4.811-10.91 8.932-17.204 12.218-14.268-3.904-27.516-10.415-39.58-19.47-18.234-13.701-27.403-28.763-29.061-31.637l-.35-.639c-3.956 2.442-7.963 5.439-11.837 9.138 3.472 5.79 13.691 20.964 32.348 34.985 8.087 6.078 16.802 11.198 25.992 15.257-4.368.762-8.86 1.164-13.454 1.164-6.82 0-13.444-.876-19.749-2.534-.701-.505-1.391-1.01-2.071-1.525-17.101-12.857-27.959-26.754-33.491-34.975-1.978 2.915-3.853 6.099-5.594 9.57-3.657-4.595-6.799-9.622-9.333-14.989 20.882-33.79 53.075-40.455 65.468-41.774 1.36-3.245 3.214-8.478 4.368-15.144-3.997.072-18.1.876-35.15 8.2-16.112 6.913-29.731 17.42-40.538 31.276-1.051-5.11-1.607-10.394-1.607-15.803 0-1.947.072-3.884.216-5.79 10.322-10.086 22.314-18.09 35.83-23.89 20.964-8.994 38.591-9.447 41.918-9.447h.35c-.185-4.646-.845-9.612-2.174-14.804-7.129.196-25.003 1.648-45.936 10.631-8.602 3.698-16.761 8.241-24.302 13.547 4.615-11.136 11.744-20.964 20.686-28.783 18.214-7.428 34.305-9.807 43.865-10.549-1.277-2.565-2.74-5.151-4.409-7.747 3.801-.577 7.695-.876 11.651-.876 1.968 0 3.915.072 5.841.216 17.884 34.12 8.087 64.613 3.286 75.729 2.071 2.823 5.635 7.149 10.827 11.61 1.401-2.493 8.097-15.288 10.271-34.46 1.926-16.967-.278-33.584-6.562-49.428 6.851 2.184 13.289 5.295 19.161 9.189 3.451 13.65 4.378 27.702 2.751 41.98-2.524 22.252-10.58 37.509-12.177 40.342-.227.412-.505.773-.793 1.123 4.11 2.246 8.736 4.244 13.918 5.779 2.792-5.048 11.074-21.706 13.784-45.565 1.04-9.169 1.143-18.368.309-27.423 7.026 8.736 12.197 19.027 14.907 30.267-2.545 21.088-9.055 37.2-13.114 45.606 3.275.252 6.716.313 10.322.138z" fill="#d1cfd1"/></g></g></g></svg>